<svg version="1.1" id="Layer_1" xmlns="http://www.w3.org/2000/svg" xmlns:xlink="http://www.w3.org/1999/xlink" x="0" y="0" viewBox="0 0 32.2 30" xml:space="preserve" enable-background="new 0 0 32.2 30"><style type="text/css">.st0{fill:none;stroke:#5b9bd5;stroke-width:1.9036;stroke-linecap:round;stroke-linejoin:round}</style><title>Group 19</title><desc>Created with Sketch.</desc><g id="Page-1"><g id="Desktop" transform="translate(-996.000000, -2143.000000)"><g id="Customer-Touch-Points" transform="translate(546.000000, 1252.000000)"><g id="Destinations" transform="translate(289.000000, 866.000000)"><g id="Group-8" transform="translate(125.000000, 0.000000)"><g id="Group-19" transform="translate(36.000000, 26.000000)"><g id="icon-small-data"><g transform="translate(18.866667, 18.061350) scale(-1, 1) translate(-18.866667, -18.061350) translate(0.329730, 0.668712) translate(0.131818, -0.423077)"><path id="Stroke-1" class="st0" d="M18.2,17.7c0-1.6,1.3-3,3-3s3,1.3,3,3s-1.3,3-3,3S18.2,19.3,18.2,17.7L18.2,17.7z"/><path id="Stroke-3" class="st0" d="M6.1,2.9c0-1.6,1.3-3,3-3s3,1.3,3,3s-1.3,3-3,3S6.1,4.5,6.1,2.9L6.1,2.9z"/><path id="Stroke-5" class="st0" d="M30.3,10.3c0-1.6,1.3-3,3-3c1.6,0,3,1.3,3,3s-1.3,3-3,3C31.6,13.3,30.3,11.9,30.3,10.3 L30.3,10.3z"/><path id="Stroke-7" class="st0" d="M6.1,27.6h30.1"/><path id="Stroke-10" class="st0" d="M18.7,14.7C16.4,12,13.1,7.9,11,5.3"/><path id="Stroke-12" class="st0" d="M30.7,11.8l-6.6,4"/></g></g></g></g></g></g></g></g></svg>