<svg version="1.1" id="Layer_1" xmlns="http://www.w3.org/2000/svg" xmlns:xlink="http://www.w3.org/1999/xlink" x="0" y="0" viewBox="0 0 41.4 37.8" xml:space="preserve" enable-background="new 0 0 41.4 37.8"><style type="text/css">.st0{fill:none;stroke:#5b9bd5;stroke-width:1.9036;stroke-linecap:round;stroke-linejoin:round}</style><title>Group 27</title><desc>Created with Sketch.</desc><g id="Page-1"><g id="Desktop" transform="translate(-864.000000, -2145.000000)"><g id="Customer-Touch-Points" transform="translate(546.000000, 1252.000000)"><g id="Destinations" transform="translate(289.000000, 866.000000)"><g id="Email_tools"><g id="Group-18" transform="translate(29.000000, 27.000000)"><g id="Destination_icons" transform="translate(0.488288, 0.828221)"><g id="Group-2"><g id="Group-25"><g id="Group-27"><g id="icon-small-email"><g><path id="Stroke-1" class="st0" d="M6.4,11.6L6,9.1C5.7,8.1,6.3,7,7.4,6.7l25.8-6.5c1.1-0.3,2.2,0.4,2.5,1.5l4,15.9 c0.3,1.1-0.4,2.2-1.5,2.5l-1.5,0.5"/><path id="Stroke-3" class="st0" d="M34.4,28.8l-27.6,7C6.2,36,5.6,35.6,5.4,35L1,17.4c-0.1-0.6,0.2-1.2,0.8-1.3l27.6-7 c0.6-0.1,1.2,0.2,1.3,0.8l4.5,17.6C35.3,28.1,35,28.7,34.4,28.8L34.4,28.8z"/><path id="Stroke-5" class="st0" d="M1.3,18.6c0.4,1.7,9.5,3.3,14.2,4.1c1.8,0.3,3.6-0.2,5-1.3c3.8-2.9,11-8.6,10.5-10.4"/><path id="Stroke-7" class="st0" d="M10.7,25.4C7.7,29,5,33.1,5.3,34.3"/><path id="Stroke-9" class="st0" d="M34.9,26.6c-0.8-1.2-5.1-3.4-9.3-4.9"/></g></g></g></g></g></g></g></g></g></g></g></g></svg>