<svg xmlns="http://www.w3.org/2000/svg" width="529" height="328" xmlns:xlink="http://www.w3.org/1999/xlink">
    <defs>
        <g id="c">
            <animateTransform attributeName="transform" type="rotate" from="0 327 327" to="360 327 327" dur="50s" repeatCount="indefinite" />
            <use xlink:href="#a" />
        </g>
        <g id="e">
            <animateTransform attributeName="transform" type="rotate" from="360 327 327" to="0 327 327" dur="50s" repeatCount="indefinite" />
            <use xlink:href="#a" />
        </g>
        <g id="l">
            <animateTransform fill="freeze" attributeName="transform" type="translate" from="0 0" to="0 331" dur="5s" repeatCount="1" />
            <use xlink:href="#b" />
        </g>
        <g id="j">
            <animateTransform attributeName="transform" type="translate" from="0 0" to="0 662" dur="10s" repeatCount="indefinite" />
            <use y="-331" xlink:href="#b" />
        </g>
        <g id="m">
            <animateTransform attributeName="transform" type="translate" from="0 0" to="0 662" dur="10s" begin="5s" repeatCount="indefinite" />
            <use y="-331" xlink:href="#b" />
        </g>
        <g id="b">
            <circle cx="2.5" cy="92.5" r="2.5" fill="#ffa22c" />
            <circle cx="2.5" cy="82.5" r="2.5" fill="#8c8c8c" />
            <circle cx="2.5" cy="72.5" r="2.5" fill="#8c8c8c" />
            <circle cx="2.5" cy="62.5" r="2.5" fill="#3b9ad3" />
            <circle cx="2.5" cy="52.5" r="2.5" fill="#ffa22c" />
            <circle cx="2.5" cy="42.5" r="2.5" fill="#0ccfc0" />
            <circle cx="2.5" cy="32.5" r="2.5" fill="#8c8c8c" />
            <circle cx="2.5" cy="22.5" r="2.5" fill="#ffa22c" />
            <circle cx="2.5" cy="12.5" r="2.5" fill="#B9E5FA" />
            <circle cx="2.5" cy="2.5" r="2.5" fill="#8c8c8c" />
            <circle cx="2.5" cy="324.5" r="2.5" fill="#ffa22c" />
            <circle cx="2.5" cy="314.5" r="2.5" fill="#8c8c8c" />
            <circle cx="2.5" cy="304.5" r="2.5" fill="#8c8c8c" />
            <circle cx="2.5" cy="294.5" r="2.5" fill="#8c8c8c" />
            <circle cx="2.5" cy="284.5" r="2.5" fill="#ffa22c" />
            <circle cx="2.5" cy="274.5" r="2.5" fill="#0ccfc0" />
            <circle cx="2.5" cy="264.5" r="2.5" fill="#8c8c8c" />
            <circle cx="2.5" cy="254.5" r="2.5" fill="#ffa22c" />
            <circle cx="2.5" cy="244.5" r="2.5" fill="#B9E5FA" />
            <circle cx="2.5" cy="234.5" r="2.5" fill="#8c8c8c" />
            <circle cx="2.5" cy="224.5" r="2.5" fill="#8c8c8c" />
            <circle cx="2.5" cy="214.5" r="2.5" fill="#3b9ad3" />
            <circle cx="2.5" cy="204.5" r="2.5" fill="#8c8c8c" />
            <circle cx="2.5" cy="194.5" r="2.5" fill="#8c8c8c" />
            <circle cx="2.5" cy="184.5" r="2.5" fill="#ffa22c" />
            <circle cx="2.5" cy="174.5" r="2.5" fill="#0ccfc0" />
            <circle cx="2.5" cy="164.5" r="2.5" fill="#8c8c8c" />
            <circle cx="2.5" cy="154.5" r="2.5" fill="#8c8c8c" />
            <circle cx="2.5" cy="144.5" r="2.5" fill="#ffa22c" />
            <circle cx="2.5" cy="134.5" r="2.5" fill="#8c8c8c" />
            <circle cx="2.5" cy="124.5" r="2.5" fill="#B9E5FA" />
            <circle cx="2.5" cy="114.5" r="2.5" fill="#ff534e" />
            <circle cx="2.5" cy="104.5" r="2.5" fill="#8c8c8c" />
            <path fill="none" d="M0 0h20v331H0z" />
        </g>
        <g id="a">
            <circle cx="652.5" cy="327.5" r="2.5" fill="#8c8c8c" />
            <circle cx="652.339632" cy="337.708497" r="2.5" fill="#8c8c8c" transform="rotate(2 652.34 337.708)" />
            <circle cx="651.858687" cy="347.906919" r="2.5" fill="#8c8c8c" transform="rotate(4 651.86 347.907)" />
            <circle cx="651.057638" cy="358.085202" r="2.5" fill="#3b9ad3" transform="rotate(5 651.058 358.085)" />
            <circle cx="649.937278" cy="368.233301" r="2.5" fill="#B0CEEB" transform="rotate(7 649.937 368.233)" />
            <circle cx="648.498711" cy="378.341201" r="2.5" fill="#8c8c8c" transform="rotate(9 648.5 378.34)" />
            <circle cx="646.743356" cy="388.398927" r="2.5" fill="#8c8c8c" transform="rotate(11 646.743 388.4)" />
            <circle cx="644.672948" cy="398.396553" r="2.5" fill="#8c8c8c" transform="rotate(13 644.673 398.397)" />
            <circle cx="642.289527" cy="408.324213" r="2.5" fill="#8c8c8c" transform="rotate(14 642.29 408.324)" />
            <circle cx="639.595448" cy="418.172109" r="2.5" fill="#3b9ad3" transform="rotate(16 639.595 418.172)" />
            <circle cx="636.593368" cy="427.930523" r="2.5" fill="#8c8c8c" transform="rotate(18 636.593 427.93)" />
            <circle cx="633.28625" cy="437.589824" r="2.5" fill="#ff534e" transform="rotate(20 633.286 437.59)" />
            <circle cx="629.677358" cy="447.14048" r="2.5" fill="#0ccfc0" transform="rotate(22 629.677 447.14)" />
            <circle cx="625.770253" cy="456.573064" r="2.5" fill="#8c8c8c" transform="rotate(23 625.77 456.573)" />
            <circle cx="621.568792" cy="465.87827" r="2.5" fill="#ffa22c" transform="rotate(25 621.57 465.878)" />
            <circle cx="617.07712" cy="475.046912" r="2.5" fill="#8c8c8c" transform="rotate(27 617.077 475.047)" />
            <circle cx="612.299671" cy="484.069944" r="2.5" fill="#8c8c8c" transform="rotate(29 612.3 484.07)" />
            <circle cx="607.241159" cy="492.93846" r="2.5" fill="#0ccfc0" transform="rotate(31 607.24 492.938)" />
            <circle cx="601.906576" cy="501.643708" r="2.5" fill="#B0CEEB" transform="rotate(32 601.907 501.644)" />
            <circle cx="596.301187" cy="510.177098" r="2.5" fill="#8c8c8c" transform="rotate(34 596.3 510.177)" />
            <circle cx="590.430523" cy="518.530207" r="2.5" fill="#8c8c8c" transform="rotate(36 590.43 518.53)" />
            <circle cx="584.300379" cy="526.694792" r="2.5" fill="#8c8c8c" transform="rotate(38 584.3 526.695)" />
            <circle cx="577.916804" cy="534.662797" r="2.5" fill="#0ccfc0" transform="rotate(40 577.917 534.663)" />
            <circle cx="571.286098" cy="542.426356" r="2.5" fill="#8c8c8c" transform="rotate(41 571.286 542.426)" />
            <circle cx="564.414804" cy="549.977809" r="2.5" fill="#8c8c8c" transform="rotate(43 564.415 549.978)" />
            <circle cx="557.309704" cy="557.309704" r="2.5" fill="#ff534e" transform="rotate(45 557.31 557.31)" />
            <circle cx="549.977809" cy="564.414804" r="2.5" fill="#8c8c8c" transform="rotate(47 549.978 564.415)" />
            <circle cx="542.426356" cy="571.286098" r="2.5" fill="#8c8c8c" transform="rotate(49 542.426 571.286)" />
            <circle cx="534.662797" cy="577.916804" r="2.5" fill="#8c8c8c" transform="rotate(50 534.663 577.917)" />
            <circle cx="526.694792" cy="584.300379" r="2.5" fill="#ffa22c" transform="rotate(52 526.695 584.3)" />
            <circle cx="518.530207" cy="590.430523" r="2.5" fill="#8c8c8c" transform="rotate(54 518.53 590.43)" />
            <circle cx="510.177098" cy="596.301187" r="2.5" fill="#0ccfc0" transform="rotate(56 510.177 596.3)" />
            <circle cx="501.643708" cy="601.906576" r="2.5" fill="#8c8c8c" transform="rotate(58 501.644 601.907)" />
            <circle cx="492.93846" cy="607.241159" r="2.5" fill="#B0CEEB" transform="rotate(59 492.938 607.24)" />
            <circle cx="484.069944" cy="612.299671" r="2.5" fill="#8c8c8c" transform="rotate(61 484.07 612.3)" />
            <circle cx="475.046912" cy="617.07712" r="2.5" fill="#ff534e" transform="rotate(63 475.047 617.077)" />
            <circle cx="465.87827" cy="621.568792" r="2.5" fill="#ffa22c" transform="rotate(65 465.878 621.57)" />
            <circle cx="456.573064" cy="625.770253" r="2.5" fill="#8c8c8c" transform="rotate(67 456.573 625.77)" />
            <circle cx="447.14048" cy="629.677358" r="2.5" fill="#8c8c8c" transform="rotate(68 447.14 629.677)" />
            <circle cx="437.589824" cy="633.28625" r="2.5" fill="#8c8c8c" transform="rotate(70 437.59 633.286)" />
            <circle cx="427.930523" cy="636.593368" r="2.5" fill="#3b9ad3" transform="rotate(72 427.93 636.593)" />
            <circle cx="418.172109" cy="639.595448" r="2.5" fill="#8c8c8c" transform="rotate(74 418.172 639.595)" />
            <circle cx="408.324213" cy="642.289527" r="2.5" fill="#8c8c8c" transform="rotate(76 408.324 642.29)" />
            <circle cx="398.396553" cy="644.672948" r="2.5" fill="#8c8c8c" transform="rotate(77 398.397 644.673)" />
            <circle cx="388.398927" cy="646.743356" r="2.5" fill="#0ccfc0" transform="rotate(79 388.4 646.743)" />
            <circle cx="378.341201" cy="648.498711" r="2.5" fill="#8c8c8c" transform="rotate(81 378.34 648.5)" />
            <circle cx="368.233301" cy="649.937278" r="2.5" fill="#ffa22c" transform="rotate(83 368.233 649.937)" />
            <circle cx="358.085202" cy="651.057638" r="2.5" fill="#ff534e" transform="rotate(85 358.085 651.058)" />
            <circle cx="347.906919" cy="651.858687" r="2.5" fill="#8c8c8c" transform="rotate(86 347.907 651.86)" />
            <circle cx="337.708497" cy="652.339632" r="2.5" fill="#8c8c8c" transform="rotate(88 337.708 652.34)" />
            <circle cx="327.5" cy="652.5" r="2.5" fill="#ffa22c" transform="rotate(90 327.5 652.5)" />
            <circle cx="317.291503" cy="652.339632" r="2.5" fill="#8c8c8c" transform="rotate(92 317.292 652.34)" />
            <circle cx="307.093081" cy="651.858687" r="2.5" fill="#8c8c8c" transform="rotate(94 307.093 651.86)" />
            <circle cx="296.914798" cy="651.057638" r="2.5" fill="#8c8c8c" transform="rotate(95 296.915 651.058)" />
            <circle cx="286.766699" cy="649.937278" r="2.5" fill="#8c8c8c" transform="rotate(97 286.767 649.937)" />
            <circle cx="276.658799" cy="648.498711" r="2.5" fill="#8c8c8c" transform="rotate(99 276.66 648.5)" />
            <circle cx="266.601073" cy="646.743356" r="2.5" fill="#8c8c8c" transform="rotate(101 266.6 646.743)" />
            <circle cx="256.603447" cy="644.672948" r="2.5" fill="#3b9ad3" transform="rotate(103 256.603 644.673)" />
            <circle cx="246.675787" cy="642.289527" r="2.5" fill="#ffa22c" transform="rotate(104 246.676 642.29)" />
            <circle cx="236.827891" cy="639.595448" r="2.5" fill="#0ccfc0" transform="rotate(106 236.828 639.595)" />
            <circle cx="227.069477" cy="636.593368" r="2.5" fill="#8c8c8c" transform="rotate(108 227.07 636.593)" />
            <circle cx="217.410176" cy="633.28625" r="2.5" fill="#8c8c8c" transform="rotate(110 217.41 633.286)" />
            <circle cx="207.85952" cy="629.677358" r="2.5" fill="#ff534e" transform="rotate(112 207.86 629.677)" />
            <circle cx="198.426936" cy="625.770253" r="2.5" fill="#8c8c8c" transform="rotate(113 198.427 625.77)" />
            <circle cx="189.12173" cy="621.568792" r="2.5" fill="#8c8c8c" transform="rotate(115 189.122 621.57)" />
            <circle cx="179.953088" cy="617.07712" r="2.5" fill="#8c8c8c" transform="rotate(117 179.953 617.077)" />
            <circle cx="170.930056" cy="612.299671" r="2.5" fill="#B0CEEB" transform="rotate(119 170.93 612.3)" />
            <circle cx="162.06154" cy="607.241159" r="2.5" fill="#8c8c8c" transform="rotate(121 162.062 607.24)" />
            <circle cx="153.356292" cy="601.906576" r="2.5" fill="#8c8c8c" transform="rotate(122 153.356 601.907)" />
            <circle cx="144.822902" cy="596.301187" r="2.5" fill="#0ccfc0" transform="rotate(124 144.823 596.3)" />
            <circle cx="136.469793" cy="590.430523" r="2.5" fill="#3b9ad3" transform="rotate(126 136.47 590.43)" />
            <circle cx="128.305208" cy="584.300379" r="2.5" fill="#0ccfc0" transform="rotate(128 128.305 584.3)" />
            <circle cx="120.337203" cy="577.916804" r="2.5" fill="#8c8c8c" transform="rotate(130 120.337 577.917)" />
            <circle cx="112.573644" cy="571.286098" r="2.5" fill="#3b9ad3" transform="rotate(131 112.574 571.286)" />
            <circle cx="105.022191" cy="564.414804" r="2.5" fill="#ffa22c" transform="rotate(133 105.022 564.415)" />
            <circle cx="97.6902961" cy="557.309704" r="2.5" fill="#8c8c8c" transform="rotate(135 97.69 557.31)" />
            <circle cx="90.5851961" cy="549.977809" r="2.5" fill="#8c8c8c" transform="rotate(137 90.585 549.978)" />
            <circle cx="83.7139024" cy="542.426356" r="2.5" fill="#ff534e" transform="rotate(139 83.714 542.426)" />
            <circle cx="77.0831961" cy="534.662797" r="2.5" fill="#8c8c8c" transform="rotate(140 77.083 534.663)" />
            <circle cx="70.699621" cy="526.694792" r="2.5" fill="#8c8c8c" transform="rotate(142 70.7 526.695)" />
            <circle cx="64.5694768" cy="518.530207" r="2.5" fill="#8c8c8c" transform="rotate(144 64.57 518.53)" />
            <circle cx="58.6988134" cy="510.177098" r="2.5" fill="#3b9ad3" transform="rotate(146 58.7 510.177)" />
            <circle cx="53.0934242" cy="501.643708" r="2.5" fill="#8c8c8c" transform="rotate(148 53.093 501.644)" />
            <circle cx="47.7588412" cy="492.93846" r="2.5" fill="#8c8c8c" transform="rotate(149 47.76 492.938)" />
            <circle cx="42.700329" cy="484.069944" r="2.5" fill="#8c8c8c" transform="rotate(151 42.7 484.07)" />
            <circle cx="37.9228796" cy="475.046912" r="2.5" fill="#0ccfc0" transform="rotate(153 37.923 475.047)" />
            <circle cx="33.4312079" cy="465.87827" r="2.5" fill="#8c8c8c" transform="rotate(155 33.43 465.878)" />
            <circle cx="29.2297467" cy="456.573064" r="2.5" fill="#8c8c8c" transform="rotate(157 29.23 456.573)" />
            <circle cx="25.3226421" cy="447.14048" r="2.5" fill="#ff534e" transform="rotate(158 25.323 447.14)" />
            <circle cx="21.7137501" cy="437.589824" r="2.5" fill="#ffa22c" transform="rotate(160 21.714 437.59)" />
            <circle cx="18.4066322" cy="427.930523" r="2.5" fill="#0ccfc0" transform="rotate(162 18.407 427.93)" />
            <circle cx="15.4045522" cy="418.172109" r="2.5" fill="#8c8c8c" transform="rotate(164 15.405 418.172)" />
            <circle cx="12.7104726" cy="408.324213" r="2.5" fill="#8c8c8c" transform="rotate(166 12.71 408.324)" />
            <circle cx="10.3270524" cy="398.396553" r="2.5" fill="#8c8c8c" transform="rotate(167 10.327 398.397)" />
            <circle cx="8.25664351" cy="388.398927" r="2.5" fill="#8c8c8c" transform="rotate(169 8.257 388.4)" />
            <circle cx="6.50128931" cy="378.341201" r="2.5" fill="#8c8c8c" transform="rotate(171 6.5 378.34)" />
            <circle cx="5.06272207" cy="368.233301" r="2.5" fill="#8c8c8c" transform="rotate(173 5.063 368.233)" />
            <circle cx="3.9423615" cy="358.085202" r="2.5" fill="#8c8c8c" transform="rotate(175 3.942 358.085)" />
            <circle cx="3.14131326" cy="347.906919" r="2.5" fill="#3b9ad3" transform="rotate(176 3.14 347.907)" />
            <circle cx="2.66036788" cy="337.708497" r="2.5" fill="#ff534e" transform="rotate(178 2.66 337.708)" />
            <circle cx="2.5" cy="327.5" r="2.5" fill="#ffa22c" transform="rotate(180 2.5 327.5)" />
            <circle cx="2.66036788" cy="317.291503" r="2.5" fill="#8c8c8c" transform="rotate(-178 2.66 317.292)" />
            <circle cx="3.14131326" cy="307.093081" r="2.5" fill="#0ccfc0" transform="rotate(-176 3.14 307.093)" />
            <circle cx="3.9423615" cy="296.914798" r="2.5" fill="#8c8c8c" transform="rotate(-175 3.942 296.915)" />
            <circle cx="5.06272207" cy="286.766699" r="2.5" fill="#3b9ad3" transform="rotate(-173 5.063 286.767)" />
            <circle cx="6.50128931" cy="276.658799" r="2.5" fill="#8c8c8c" transform="rotate(-171 6.5 276.66)" />
            <circle cx="8.25664351" cy="266.601073" r="2.5" fill="#8c8c8c" transform="rotate(-169 8.257 266.6)" />
            <circle cx="10.3270524" cy="256.603447" r="2.5" fill="#0ccfc0" transform="rotate(-167 10.327 256.603)" />
            <circle cx="12.7104726" cy="246.675787" r="2.5" fill="#8c8c8c" transform="rotate(-166 12.71 246.676)" />
            <circle cx="15.4045522" cy="236.827891" r="2.5" fill="#B0CEEB" transform="rotate(-164 15.405 236.828)" />
            <circle cx="18.4066322" cy="227.069477" r="2.5" fill="#8c8c8c" transform="rotate(-162 18.407 227.07)" />
            <circle cx="21.7137501" cy="217.410176" r="2.5" fill="#8c8c8c" transform="rotate(-160 21.714 217.41)" />
            <circle cx="25.3226421" cy="207.85952" r="2.5" fill="#8c8c8c" transform="rotate(-158 25.323 207.86)" />
            <circle cx="29.2297467" cy="198.426936" r="2.5" fill="#0ccfc0" transform="rotate(-157 29.23 198.427)" />
            <circle cx="33.4312079" cy="189.12173" r="2.5" fill="#8c8c8c" transform="rotate(-155 33.43 189.122)" />
            <circle cx="37.9228796" cy="179.953088" r="2.5" fill="#8c8c8c" transform="rotate(-153 37.923 179.953)" />
            <circle cx="42.700329" cy="170.930056" r="2.5" fill="#ff534e" transform="rotate(-151 42.7 170.93)" />
            <circle cx="47.7588412" cy="162.06154" r="2.5" fill="#8c8c8c" transform="rotate(-149 47.76 162.062)" />
            <circle cx="53.0934242" cy="153.356292" r="2.5" fill="#3b9ad3" transform="rotate(-148 53.093 153.356)" />
            <circle cx="58.6988134" cy="144.822902" r="2.5" fill="#8c8c8c" transform="rotate(-146 58.7 144.823)" />
            <circle cx="64.5694768" cy="136.469793" r="2.5" fill="#8c8c8c" transform="rotate(-144 64.57 136.47)" />
            <circle cx="70.699621" cy="128.305208" r="2.5" fill="#ffa22c" transform="rotate(-142 70.7 128.305)" />
            <circle cx="77.0831961" cy="120.337203" r="2.5" fill="#0ccfc0" transform="rotate(-140 77.083 120.337)" />
            <circle cx="83.7139024" cy="112.573644" r="2.5" fill="#8c8c8c" transform="rotate(-139 83.714 112.574)" />
            <circle cx="90.5851961" cy="105.022191" r="2.5" fill="#8c8c8c" transform="rotate(-137 90.585 105.022)" />
            <circle cx="97.6902961" cy="97.6902961" r="2.5" fill="#8c8c8c" transform="rotate(-135 97.69 97.69)" />
            <circle cx="105.022191" cy="90.5851961" r="2.5" fill="#8c8c8c" transform="rotate(-133 105.022 90.585)" />
            <circle cx="112.573644" cy="83.7139024" r="2.5" fill="#B0CEEB" transform="rotate(-131 112.574 83.714)" />
            <circle cx="120.337203" cy="77.0831961" r="2.5" fill="#8c8c8c" transform="rotate(-130 120.337 77.083)" />
            <circle cx="128.305208" cy="70.699621" r="2.5" fill="#8c8c8c" transform="rotate(-128 128.305 70.7)" />
            <circle cx="136.469793" cy="64.5694768" r="2.5" fill="#8c8c8c" transform="rotate(-126 136.47 64.57)" />
            <circle cx="144.822902" cy="58.6988134" r="2.5" fill="#8c8c8c" transform="rotate(-124 144.823 58.7)" />
            <circle cx="153.356292" cy="53.0934242" r="2.5" fill="#0ccfc0" transform="rotate(-122 153.356 53.093)" />
            <circle cx="162.06154" cy="47.7588412" r="2.5" fill="#8c8c8c" transform="rotate(-121 162.062 47.76)" />
            <circle cx="170.930056" cy="42.700329" r="2.5" fill="#8c8c8c" transform="rotate(-119 170.93 42.7)" />
            <circle cx="179.953088" cy="37.9228796" r="2.5" fill="#3b9ad3" transform="rotate(-117 179.953 37.923)" />
            <circle cx="189.12173" cy="33.4312079" r="2.5" fill="#ff534e" transform="rotate(-115 189.122 33.43)" />
            <circle cx="198.426936" cy="29.2297467" r="2.5" fill="#8c8c8c" transform="rotate(-113 198.427 29.23)" />
            <circle cx="207.85952" cy="25.3226421" r="2.5" fill="#8c8c8c" transform="rotate(-112 207.86 25.323)" />
            <circle cx="217.410176" cy="21.7137501" r="2.5" fill="#8c8c8c" transform="rotate(-110 217.41 21.714)" />
            <circle cx="227.069477" cy="18.4066322" r="2.5" fill="#0ccfc0" transform="rotate(-108 227.07 18.407)" />
            <circle cx="236.827891" cy="15.4045522" r="2.5" fill="#B0CEEB" transform="rotate(-106 236.828 15.405)" />
            <circle cx="246.675787" cy="12.7104726" r="2.5" fill="#8c8c8c" transform="rotate(-104 246.676 12.71)" />
            <circle cx="256.603447" cy="10.3270524" r="2.5" fill="#8c8c8c" transform="rotate(-103 256.603 10.327)" />
            <circle cx="266.601073" cy="8.25664351" r="2.5" fill="#0ccfc0" transform="rotate(-101 266.6 8.257)" />
            <circle cx="276.658799" cy="6.50128931" r="2.5" fill="#ffa22c" transform="rotate(-99 276.66 6.5)" />
            <circle cx="286.766699" cy="5.06272207" r="2.5" fill="#8c8c8c" transform="rotate(-97 286.767 5.063)" />
            <circle cx="296.914798" cy="3.9423615" r="2.5" fill="#8c8c8c" transform="rotate(-95 296.915 3.942)" />
            <circle cx="307.093081" cy="3.14131326" r="2.5" fill="#8c8c8c" transform="rotate(-94 307.093 3.14)" />
            <circle cx="317.291503" cy="2.66036788" r="2.5" fill="#8c8c8c" transform="rotate(-92 317.292 2.66)" />
            <circle cx="327.5" cy="2.5" r="2.5" fill="#ffa22c" transform="rotate(-90 327.5 2.5)" />
            <circle cx="337.708497" cy="2.66036788" r="2.5" fill="#0ccfc0" transform="rotate(-88 337.708 2.66)" />
            <circle cx="347.906919" cy="3.14131326" r="2.5" fill="#8c8c8c" transform="rotate(-86 347.907 3.14)" />
            <circle cx="358.085202" cy="3.9423615" r="2.5" fill="#8c8c8c" transform="rotate(-85 358.085 3.942)" />
            <circle cx="368.233301" cy="5.06272207" r="2.5" fill="#8c8c8c" transform="rotate(-83 368.233 5.063)" />
            <circle cx="378.341201" cy="6.50128931" r="2.5" fill="#8c8c8c" transform="rotate(-81 378.34 6.5)" />
            <circle cx="388.398927" cy="8.25664351" r="2.5" fill="#3b9ad3" transform="rotate(-79 388.4 8.257)" />
            <circle cx="398.396553" cy="10.3270524" r="2.5" fill="#8c8c8c" transform="rotate(-77 398.397 10.327)" />
            <circle cx="408.324213" cy="12.7104726" r="2.5" fill="#8c8c8c" transform="rotate(-76 408.324 12.71)" />
            <circle cx="418.172109" cy="15.4045522" r="2.5" fill="#8c8c8c" transform="rotate(-74 418.172 15.405)" />
            <circle cx="427.930523" cy="18.4066322" r="2.5" fill="#8c8c8c" transform="rotate(-72 427.93 18.407)" />
            <circle cx="437.589824" cy="21.7137501" r="2.5" fill="#ff534e" transform="rotate(-70 437.59 21.714)" />
            <circle cx="447.14048" cy="25.3226421" r="2.5" fill="#0ccfc0" transform="rotate(-68 447.14 25.323)" />
            <circle cx="456.573064" cy="29.2297467" r="2.5" fill="#8c8c8c" transform="rotate(-67 456.573 29.23)" />
            <circle cx="465.87827" cy="33.4312079" r="2.5" fill="#8c8c8c" transform="rotate(-65 465.878 33.43)" />
            <circle cx="475.046912" cy="37.9228796" r="2.5" fill="#ffa22c" transform="rotate(-63 475.047 37.923)" />
            <circle cx="484.069944" cy="42.700329" r="2.5" fill="#8c8c8c" transform="rotate(-61 484.07 42.7)" />
            <circle cx="492.93846" cy="47.7588412" r="2.5" fill="#3b9ad3" transform="rotate(-59 492.938 47.76)" />
            <circle cx="501.643708" cy="53.0934242" r="2.5" fill="#ffa22c" transform="rotate(-58 501.644 53.093)" />
            <circle cx="510.177098" cy="58.6988134" r="2.5" fill="#ff534e" transform="rotate(-56 510.177 58.7)" />
            <circle cx="518.530207" cy="64.5694768" r="2.5" fill="#8c8c8c" transform="rotate(-54 518.53 64.57)" />
            <circle cx="526.694792" cy="70.699621" r="2.5" fill="#8c8c8c" transform="rotate(-52 526.695 70.7)" />
            <circle cx="534.662797" cy="77.0831961" r="2.5" fill="#8c8c8c" transform="rotate(-50 534.663 77.083)" />
            <circle cx="542.426356" cy="83.7139024" r="2.5" fill="#8c8c8c" transform="rotate(-49 542.426 83.714)" />
            <circle cx="549.977809" cy="90.5851961" r="2.5" fill="#8c8c8c" transform="rotate(-47 549.978 90.585)" />
            <circle cx="557.309704" cy="97.6902961" r="2.5" fill="#B0CEEB" transform="rotate(-45 557.31 97.69)" />
            <circle cx="564.414804" cy="105.022191" r="2.5" fill="#0ccfc0" transform="rotate(-43 564.415 105.022)" />
            <circle cx="571.286098" cy="112.573644" r="2.5" fill="#8c8c8c" transform="rotate(-41 571.286 112.574)" />
            <circle cx="577.916804" cy="120.337203" r="2.5" fill="#8c8c8c" transform="rotate(-40 577.917 120.337)" />
            <circle cx="584.300379" cy="128.305208" r="2.5" fill="#8c8c8c" transform="rotate(-38 584.3 128.305)" />
            <circle cx="590.430523" cy="136.469793" r="2.5" fill="#8c8c8c" transform="rotate(-36 590.43 136.47)" />
            <circle cx="596.301187" cy="144.822902" r="2.5" fill="#8c8c8c" transform="rotate(-34 596.3 144.823)" />
            <circle cx="601.906576" cy="153.356292" r="2.5" fill="#3b9ad3" transform="rotate(-32 601.907 153.356)" />
            <circle cx="607.241159" cy="162.06154" r="2.5" fill="#8c8c8c" transform="rotate(-31 607.24 162.062)" />
            <circle cx="612.299671" cy="170.930056" r="2.5" fill="#0ccfc0" transform="rotate(-29 612.3 170.93)" />
            <circle cx="617.07712" cy="179.953088" r="2.5" fill="#8c8c8c" transform="rotate(-27 617.077 179.953)" />
            <circle cx="621.568792" cy="189.12173" r="2.5" fill="#8c8c8c" transform="rotate(-25 621.57 189.122)" />
            <circle cx="625.770253" cy="198.426936" r="2.5" fill="#8c8c8c" transform="rotate(-23 625.77 198.427)" />
            <circle cx="629.677358" cy="207.85952" r="2.5" fill="#B0CEEB" transform="rotate(-22 629.677 207.86)" />
            <circle cx="633.28625" cy="217.410176" r="2.5" fill="#8c8c8c" transform="rotate(-20 633.286 217.41)" />
            <circle cx="636.593368" cy="227.069477" r="2.5" fill="#8c8c8c" transform="rotate(-18 636.593 227.07)" />
            <circle cx="639.595448" cy="236.827891" r="2.5" fill="#0ccfc0" transform="rotate(-16 639.595 236.828)" />
            <circle cx="642.289527" cy="246.675787" r="2.5" fill="#ff534e" transform="rotate(-14 642.29 246.676)" />
            <circle cx="644.672948" cy="256.603447" r="2.5" fill="#ffa22c" transform="rotate(-13 644.673 256.603)" />
            <circle cx="646.743356" cy="266.601073" r="2.5" fill="#8c8c8c" transform="rotate(-11 646.743 266.6)" />
            <circle cx="648.498711" cy="276.658799" r="2.5" fill="#8c8c8c" transform="rotate(-9 648.5 276.66)" />
            <circle cx="649.937278" cy="286.766699" r="2.5" fill="#8c8c8c" transform="rotate(-7 649.937 286.767)" />
            <circle cx="651.057638" cy="296.914798" r="2.5" fill="#8c8c8c" transform="rotate(-5 651.058 296.915)" />
            <circle cx="651.858687" cy="307.093081" r="2.5" fill="#8c8c8c" transform="rotate(-4 651.86 307.093)" />
            <circle cx="652.339632" cy="317.291503" r="2.5" fill="#8c8c8c" transform="rotate(-2 652.34 317.292)" />
        </g>
        <mask id="h" width="213" height="155" x="391" y="7" maskUnits="userSpaceOnUse">
            <path fill="#fff" d="M391 7h213v155H391z" />
        </mask>
        <mask id="g" width="213" height="155" x="50" y="7" maskUnits="userSpaceOnUse">
            <path fill="#fff" d="M50 7h213v155H50z" />
        </mask>
        <mask id="f" width="213" height="155" x="52" y="496" maskUnits="userSpaceOnUse">
            <path fill="#fff" d="M52 496h213v155H52z" />
        </mask>
        <mask id="d" width="213" height="155" x="391" y="495" maskUnits="userSpaceOnUse">
            <path fill="#fff" d="M391 495h213v155H391z" />
        </mask>
        <mask id="k" width="20" height="117" x="0" y="0">
            <path fill="#fff" d="M0 0h20v117H0zm0 206h20v130H0z" />
        </mask>
        <g id="i">
            <path fill="#ffffff" d="M89 44.5C89 69.0769792 69.0763611 89 44.5 89 19.9230208 89 0 69.0769792 0 44.5S19.9230208 0 44.5 0C69.0763611 0 89 19.9230208 89 44.5" />
        </g>
    </defs>
    <use x="-85" y="-495" xlink:href="#c" mask="url(#d)" />
    <use x="-40" y="-495" xlink:href="#e" mask="url(#f)" />
    <use x="-40" y="167" xlink:href="#e" mask="url(#g)" />
    <use x="-85" y="167" xlink:href="#c" mask="url(#h)" />
    <use x="221" y="117" xlink:href="#i" />
    <use x="264" xlink:href="#j" mask="url(#k)" />
    <use x="264" xlink:href="#l" mask="url(#k)" />
    <use x="264" xlink:href="#m" mask="url(#k)" />
</svg>