<svg version="1.1" id="Layer_1" xmlns="http://www.w3.org/2000/svg" xmlns:xlink="http://www.w3.org/1999/xlink" x="0" y="0" viewBox="0 0 32.9 33.4" xml:space="preserve" enable-background="new 0 0 32.9 33.4"><style type="text/css">.st0{fill:none;stroke:#5b9bd5;stroke-width:2;stroke-linecap:round;stroke-linejoin:round}</style><title>Group 22</title><desc>Created with Sketch.</desc><g id="Page-1"><g id="Desktop" transform="translate(-1266.000000, -2143.000000)"><g id="Customer-Touch-Points" transform="translate(546.000000, 1252.000000)"><g id="Destinations" transform="translate(289.000000, 866.000000)"><g id="Group-6" transform="translate(387.000000, 0.000000)"><g id="Mobile-Copy-3" transform="translate(18.585586, 0.000000)"><g id="Group-22" transform="translate(25.000000, 25.000000)"><g id="icon_x2F_small_x2F_consistency-copy"><g transform="translate(0.488288, 0.509202)"><polyline id="Stroke-1" class="st0" points="12.4,18.9 15.4,21 20.6,14.7"/><path id="Stroke-2" class="st0" d="M12.5,4.3c0-2,1.6-3.6,3.6-3.6s3.6,1.6,3.6,3.6S18.2,8,16.2,8S12.5,6.3,12.5,4.3 L12.5,4.3z"/><path id="Stroke-4" class="st0" d="M0.8,25.2c0-2,1.6-3.6,3.6-3.6S8,23.2,8,25.2s-1.6,3.6-3.6,3.6S0.8,27.2,0.8,25.2 L0.8,25.2z"/><path id="Stroke-6" class="st0" d="M24.4,25.2c0-2,1.6-3.6,3.6-3.6s3.6,1.6,3.6,3.6S30,28.9,28,28.9S24.4,27.2,24.4,25.2 L24.4,25.2z"/><path id="Stroke-8" class="st0" d="M29.8,18.1c0-1.3-0.2-2.6-0.5-3.7"/><path id="Stroke-10" class="st0" d="M26.2,8.8c-0.9-0.9-1.9-1.7-2.9-2.4"/><path id="Stroke-12" class="st0" d="M9.7,30.4c1.1,0.6,2.3,1,3.6,1.3"/><path id="Stroke-14" class="st0" d="M19.1,31.7c1.3-0.3,2.4-0.7,3.5-1.3"/><path id="Stroke-16" class="st0" d="M9,6.4C8,7.1,7,7.9,6.1,8.8"/><path id="Stroke-18" class="st0" d="M2.8,14.4c-0.3,1.2-0.4,2.4-0.5,3.7"/></g></g></g></g></g></g></g></g></g></svg>