<svg width="25" height="29" viewBox="0 0 25 29" version="1.1" xmlns="http://www.w3.org/2000/svg" xmlns:xlink="http://www.w3.org/1999/xlink"><title>icon-small-warehouses</title><desc>Created with Sketch.</desc><g id="Supported-integrations" stroke="none" stroke-width="1" fill="none" fill-rule="evenodd"><g id="Small-Icons" transform="translate(-241.000000, -668.000000)" stroke="#5b9bd5" stroke-width="1.5" stroke-linecap="round" stroke-linejoin="round"><g id="icon-small-warehouses" transform="translate(241.000000, 668.000000)"><path d="M23.9167,5.2853 C23.9167,7.6803 18.7307,9.6213 12.3337,9.6213 C5.9357,9.6213 0.7497,7.6803 0.7497,5.2853 C0.7497,2.8903 5.9357,0.9493 12.3337,0.9493 C18.7307,0.9493 23.9167,2.8903 23.9167,5.2853 L23.9167,5.2853 Z" id="Stroke-1"/><path d="M23.9167,11.5377 C23.9167,13.9327 18.7307,15.8737 12.3337,15.8737 C5.9357,15.8737 0.7497,13.9327 0.7497,11.5377" id="Stroke-3"/><path d="M23.9167,17.7258 C23.9167,20.1208 18.7307,22.0618 12.3337,22.0618 C5.9357,22.0618 0.7497,20.1208 0.7497,17.7258" id="Stroke-5"/><path d="M23.9167,23.9139 C23.9167,26.3089 18.7307,28.2499 12.3337,28.2499 C5.9357,28.2499 0.7497,26.3089 0.7497,23.9139" id="Stroke-7"/><path d="M23.9167,23.9139 L23.9167,5.2849" id="Stroke-9"/><path d="M0.75,23.9139 L0.75,5.2849" id="Stroke-12"/></g></g></g></svg>