<svg version="1.1" id="Layer_1" xmlns="http://www.w3.org/2000/svg" xmlns:xlink="http://www.w3.org/1999/xlink" x="0" y="0" viewBox="0 0 32.4 31.8" xml:space="preserve" enable-background="new 0 0 32.4 31.8"><style type="text/css">.st0{stroke-linecap:round;stroke-linejoin:round}.st0,.st1{fill:none;stroke:#5b9bd5;stroke-width:1.5}</style><title>Group 16</title><desc>Created with Sketch.</desc><g id="Page-1"><g id="Desktop" transform="translate(-1219.000000, -1615.000000)"><g id="Customer-Touch-Points" transform="translate(546.000000, 1252.000000)"><g id="Sources" transform="translate(264.000000, 340.000000)"><g id="Server" transform="translate(350.000000, 0.000000)"><g id="Group-16" transform="translate(60.000000, 24.000000)"><g id="icon_x2F_mini_x2F_server_x2F_green"><g><g><path id="Stroke-1" class="st0" d="M4.1,29.1V30"/><path id="Stroke-3" class="st0" d="M26.5,29.1V30"/><path id="Stroke-5" class="st1" d="M22.1,5.7c0-1.2,1-2.2,2.2-2.2c1.2,0,2.2,1,2.2,2.2s-1,2.2-2.2,2.2 C23.1,7.9,22.1,6.9,22.1,5.7L22.1,5.7z"/><polygon id="Stroke-7" class="st0" points="30.6,11.6 0,11.6 0,-0.2 30.6,-0.2"/><path id="Stroke-9" class="st0" d="M4.5,4v3.3"/><path id="Stroke-10" class="st0" d="M9,4v3.3"/><path id="Stroke-11" class="st0" d="M25.1,22c0,0.6-0.5,1-1,1c-0.6,0-1-0.5-1-1s0.5-1,1-1C24.6,21,25.1,21.4,25.1,22 L25.1,22z"/><polygon id="Stroke-12" class="st0" points="30.4,27.9 -0.2,27.9 -0.2,16.1 30.4,16.1"/><path id="Stroke-13" class="st0" d="M4.3,20.3v3.4"/><path id="Stroke-14" class="st0" d="M8.8,20.3v3.4"/></g></g></g></g></g></g></g></g></g></svg>