<svg version="1.1" id="Layer_1" xmlns="http://www.w3.org/2000/svg" xmlns:xlink="http://www.w3.org/1999/xlink" x="0" y="0" viewBox="0 0 20.4 32.6" xml:space="preserve" enable-background="new 0 0 20.4 32.6"><style type="text/css">.st0{fill:none;stroke:#5b9bd5;stroke-width:1.5;stroke-linecap:round;stroke-linejoin:round}</style><title>Group 13</title><desc>Created with Sketch.</desc><g id="Page-1"><g id="Desktop" transform="translate(-876.000000, -1614.000000)"><g id="Customer-Touch-Points" transform="translate(546.000000, 1252.000000)"><g id="Sources" transform="translate(264.000000, 340.000000)"><g id="Mobile"><g id="Group-13" transform="translate(67.000000, 23.000000)"><g id="icon_x2F_mini_x2F_mobile_x2F_green"><g><g><path id="Stroke-1" class="st0" d="M14.1,30.7H4.4c-2.4,0-4.4-2-4.4-4.4v-22c0-2.4,2-4.4,4.4-4.4h9.7c2.4,0,4.4,2,4.4,4.4 v22C18.6,28.7,16.6,30.7,14.1,30.7L14.1,30.7z"/><path id="Stroke-3" class="st0" d="M10.4,25c0,0.6-0.5,1.1-1.1,1.1S8.2,25.7,8.2,25c0-0.6,0.5-1.1,1.1-1.1 S10.4,24.4,10.4,25L10.4,25z"/><path id="Stroke-5" class="st0" d="M7.5,2.4h3.6"/><polyline id="Stroke-7" class="st0" points="6.4,14.6 8.7,16.2 12.8,11.3"/></g></g></g></g></g></g></g></g></g></svg>