<svg version="1.1" id="Layer_1" xmlns="http://www.w3.org/2000/svg" xmlns:xlink="http://www.w3.org/1999/xlink" x="0" y="0" viewBox="0 0 32.2 32.1" xml:space="preserve" enable-background="new 0 0 32.2 32.1"><style type="text/css">.st0{fill:none;stroke:#5b9bd5;stroke-width:1.5;stroke-linecap:round;stroke-linejoin:round}</style><title>Group 30</title><desc>Created with Sketch.</desc><g id="Page-1"><g id="Desktop" transform="translate(-1132.000000, -2143.000000)"><g id="Customer-Touch-Points" transform="translate(546.000000, 1252.000000)"><g id="Destinations" transform="translate(289.000000, 866.000000)"><g id="Group-8-Copy" transform="translate(253.000000, 0.000000)"><g id="Group-30" transform="translate(44.000000, 25.000000)"><g id="icon-small-helpdesk"><g transform="translate(0.646847, 0.509202)"><path id="Stroke-1" class="st0" d="M26.1,19.3L26.1,19.3c1.1,0,2-0.9,2-2V13c0-1.1-0.9-2-2-2l0,0c-1.1,0-2,0.9-2,2v4.3 C24,18.4,24.9,19.3,26.1,19.3L26.1,19.3z"/><path id="Stroke-3" class="st0" d="M28.1,13.1h0.6c1.1,0,2,0.9,2,2s-0.9,2-2,2h-0.6"/><path id="Stroke-5" class="st0" d="M4.9,19.3L4.9,19.3c-1.1,0-2-0.9-2-2V13c0-1.1,0.9-2,2-2l0,0c1.1,0,2,0.9,2,2v4.3 C6.9,18.4,6,19.3,4.9,19.3L4.9,19.3z"/><path id="Stroke-7" class="st0" d="M2.9,13.1H2.3c-1.1,0-2,0.9-2,2s0.9,2,2,2h0.6"/><path id="Stroke-9" class="st0" d="M4.9,10.9c0-5.8,4.7-10.6,10.6-10.6S26,5.1,26,10.9"/><path id="Stroke-11" class="st0" d="M26,19.3c0,3.7-1.9,7-4.8,8.9"/><path id="Stroke-13" class="st0" d="M21.4,29c0,0.9-0.7,1.7-1.7,1.7c-0.9,0-1.7-0.7-1.7-1.7s0.7-1.7,1.7-1.7 C20.6,27.3,21.4,28.1,21.4,29L21.4,29z"/></g></g></g></g></g></g></g></g></svg>