<?xml version="1.0" standalone="no"?><!DOCTYPE svg PUBLIC "-//W3C//DTD SVG 1.1//EN" "http://www.w3.org/Graphics/SVG/1.1/DTD/svg11.dtd"><svg t="1537208653323" class="icon" style="" viewBox="0 0 1024 1024" version="1.1" xmlns="http://www.w3.org/2000/svg" p-id="1433" xmlns:xlink="http://www.w3.org/1999/xlink" width="200" height="200"><defs><style type="text/css"></style></defs><path d="M497.37 756.87a24 24 0 0 1-6.21-0.82L408 733.78a24 24 0 0 1-17.59-20.11l-0.56-4.31a87.16 87.16 0 0 0-75.24-75.24l-4.31-0.56A24 24 0 0 1 290.22 616l-22.27-83.13a24 24 0 0 1 8.62-25.29l3.46-2.64a87.16 87.16 0 0 0 27.54-102.77l-1.67-4a24 24 0 0 1 5.18-26.21l60.85-60.85a24 24 0 0 1 26.21-5.18l4 1.67A87.16 87.16 0 0 0 504.92 280l2.64-3.45a24 24 0 0 1 25.29-8.62L616 290.22a24 24 0 0 1 17.59 20.11l0.56 4.31a87.16 87.16 0 0 0 75.24 75.24l4.31 0.56A24 24 0 0 1 733.78 408l22.27 83.13a24 24 0 0 1-8.62 25.29l-3.43 2.66a87.16 87.16 0 0 0-27.54 102.78l1.67 4a24 24 0 0 1-5.18 26.21l-60.85 60.85a24 24 0 0 1-26.21 5.18l-4-1.67A87.16 87.16 0 0 0 519.08 744l-2.64 3.46a24 24 0 0 1-19.07 9.41z m-61.93-65.44l53.17 14.25A135.23 135.23 0 0 1 629.11 668L668 629.11a135.24 135.24 0 0 1 37.67-140.51l-14.25-53.17a135.24 135.24 0 0 1-102.85-102.86l-53.17-14.24A135.24 135.24 0 0 1 394.89 356L356 394.89a135.24 135.24 0 0 1-37.67 140.51l14.25 53.16a135.24 135.24 0 0 1 102.85 102.87z" fill="#5b9bd5" p-id="1434"></path><path d="M512 1016A504.13 504.13 0 0 1 315.81 47.62a504.89 504.89 0 0 1 465 38 24 24 0 0 1-5.13 43l-160 54.11a24 24 0 0 1-15.38-45.47l108.53-36.7A456.52 456.52 0 1 0 968 512c0-99.59-31.52-194.2-91.16-273.59a24 24 0 1 1 38.38-28.83A503.84 503.84 0 0 1 512 1016z" fill="#5b9bd5" p-id="1435"></path><path d="M512 600a88 88 0 1 1 88-88 88.1 88.1 0 0 1-88 88z m0-128a40 40 0 1 0 40 40 40 40 0 0 0-40-40z" fill="#5b9bd5" p-id="1436"></path></svg>