<?xml version="1.0" encoding="UTF-8"?>
<svg width="84px" height="89px" viewBox="0 0 84 89" version="1.1" xmlns="http://www.w3.org/2000/svg" xmlns:xlink="http://www.w3.org/1999/xlink">
    <!-- Generator: Sketch 48.2 (47327) - http://www.bohemiancoding.com/sketch -->
    <title>3</title>
    <desc>Created with Sketch.</desc>
    <defs></defs>
    <g id="首页-2" stroke="none" stroke-width="1" fill="none" fill-rule="evenodd" transform="translate(-1338.000000, -356.000000)" stroke-linecap="round">
        <g id="3" transform="translate(1341.000000, 359.000000)" stroke="#FE615E" stroke-width="5">
            <path d="M23.5773548,36.8107677 C27.7835806,41.0169935 33.7194194,43.4936065 40.2255484,43.0826226 C51.0463387,42.3985419 59.8483548,33.4452516 60.3637581,22.6150903 C60.9514516,10.2280097 51.0824839,0.000267741935 38.8252581,0.000267741935 C26.9160968,0.000267741935 17.2613226,9.65370323 17.2613226,21.5628645" id="Stroke-1"></path>
            <path d="M38.8253919,43.1265323 C19.7621661,43.1265323 3.85160161,56.6287581 0.140698387,74.5929032 C-0.717414516,78.7402258 2.47005323,82.6291774 6.70573065,82.6291774 L70.9504081,82.6291774 C75.1499403,82.6291774 78.3681984,78.7924355 77.5274887,74.6759032 C75.4243758,64.3865806 69.3198597,55.5537742 60.9114242,49.873629" id="Stroke-3"></path>
        </g>
    </g>
</svg>