<?xml version="1.0" encoding="UTF-8"?>
<svg width="119px" height="71px" viewBox="0 0 119 71" version="1.1" xmlns="http://www.w3.org/2000/svg" xmlns:xlink="http://www.w3.org/1999/xlink">
    <!-- Generator: Sketch 48.2 (47327) - http://www.bohemiancoding.com/sketch -->
    <title>2</title>
    <desc>Created with Sketch.</desc>
    <defs></defs>
    <g id="首页-2" stroke="none" stroke-width="1" fill="none" fill-rule="evenodd" transform="translate(-901.000000, -365.000000)" stroke-linecap="round">
        <g id="2" transform="translate(904.000000, 368.000000)" stroke="#FFA836" stroke-width="5">
            <path d="M20.0395296,58.8799051 C22.4595098,53.6116545 20.1487017,47.3790509 14.8804511,44.9604704 C9.61080083,42.5404902 3.37959688,44.8512983 0.959616731,50.1195489 C-1.45896378,55.3877995 0.851844336,61.6204031 6.12009493,64.0403833 C11.3883455,66.4589638 17.6195495,64.1481557 20.0395296,58.8799051 Z" id="Stroke-1"></path>
            <path d="M57.0395047,15.8799051 C59.4595477,10.6116545 57.1486795,4.37905088 51.880292,1.96047038 C46.6119044,-0.459509773 40.3791387,1.85129834 37.9604953,7.11954894 C35.5404523,12.3877995 37.8513205,18.6204031 43.119708,21.0403833 C48.3880956,23.4589638 54.6208613,21.1481557 57.0395047,15.8799051 Z" id="Stroke-3"></path>
            <path d="M76.0401433,57.8799051 C78.4587677,52.6116545 76.1493173,46.3790509 70.8795714,43.9604704 C65.6112252,41.5404902 59.3785084,43.8512983 56.959884,49.1195489 C54.5412596,54.3877995 56.85071,60.6204031 62.1190563,63.0403833 C67.3888022,65.4589638 73.6201192,63.1481557 76.0401433,57.8799051 Z" id="Stroke-5"></path>
            <path d="M112.039566,14.8799051 C114.459524,9.61165447 112.148737,3.37905088 106.879136,0.960470376 C101.610934,-1.45950977 95.379788,0.851298339 92.9598303,6.11954894 C90.5412723,11.3877995 92.8506593,17.6204031 98.1202606,20.0403833 C103.388462,22.4589638 109.619608,20.1481557 112.039566,14.8799051 Z" id="Stroke-7"></path>
            <path d="M20,45 L41,22" id="Stroke-9"></path>
            <path d="M53,23 L62,44" id="Stroke-11"></path>
            <path d="M75,45 L96,21" id="Stroke-13"></path>
        </g>
    </g>
</svg>