<?xml version="1.0" encoding="UTF-8"?>
<svg width="98px" height="86px" viewBox="0 0 98 86" version="1.1" xmlns="http://www.w3.org/2000/svg" xmlns:xlink="http://www.w3.org/1999/xlink">
    <!-- Generator: Sketch 48.2 (47327) - http://www.bohemiancoding.com/sketch -->
    <title>1</title>
    <desc>Created with Sketch.</desc>
    <defs></defs>
    <g id="首页-2" stroke="none" stroke-width="1" fill="none" fill-rule="evenodd" transform="translate(-491.000000, -357.000000)" stroke-linecap="round">
        <g id="1" transform="translate(494.000000, 360.000000)" stroke="#4CCCC2" stroke-width="5">
            <path d="M0,29.7079298 L0,63.1493333 C0,72.456 7.54385965,79.9998596 16.8505263,79.9998596 L80.642807,79.9998596 C86.8421053,79.9998596 91.8666667,74.9752982 91.8666667,68.7774035 L91.8666667,60.3507368 L91.9298246,60.3507368 L91.9298246,36.4910877 L91.8666667,36.4910877 L91.8666667,28.0644211 C91.8666667,21.8665263 86.8421053,16.8419649 80.642807,16.8419649 L49.8245614,16.8419649 L70.1754386,16.8419649 L8.42105263,16.8419649 C3.77122807,16.8419649 0,13.0721404 0,8.42091228 C0,3.77108772 3.77122807,-0.000140350877 8.42105263,-0.000140350877 L65.9691228,-0.000140350877 C68.2919298,-0.000140350877 70.1754386,1.88336842 70.1754386,4.20617544 L70.1754386,8.42091228" id="Stroke-1"></path>
            <path d="M81.4035088,49.1226667 C81.4035088,54.936 86.1164912,59.6489825 91.9298246,59.6489825 L91.9298246,38.5963509 C86.1164912,38.5963509 81.4035088,43.3093333 81.4035088,49.1226667 Z" id="Stroke-3"></path>
        </g>
    </g>
</svg>