<?xml version="1.0" encoding="UTF-8"?>
<svg width="187px" height="50px" viewBox="0 0 187 50" version="1.1" xmlns="http://www.w3.org/2000/svg" xmlns:xlink="http://www.w3.org/1999/xlink">
    <!-- Generator: Sketch 48.2 (47327) - http://www.bohemiancoding.com/sketch -->
    <title>LFlogo</title>
    <desc>Created with Sketch.</desc>
    <defs>
        <polygon id="path-1" points="0.0766172414 0.101325 16.7741345 0.101325 16.7741345 7 0.0766172414 7"></polygon>
    </defs>
    <g id="首页1" stroke="none" stroke-width="1" fill="none" fill-rule="evenodd" transform="translate(-60.000000, -20.000000)">
        <g id="LFlogo" transform="translate(60.000000, 20.000000)">
            <g id="Group-2">
                <g id="Group-21" transform="translate(7.000000, 43.000000)">
                    <mask id="mask-2" fill="white">
                        <use xlink:href="#path-1"></use>
                    </mask>
                    <g id="Clip-20"></g>
                    <path d="M1.81354828,0.498575 C1.19392759,0.400575 0.615927586,0.268741667 0.0766172414,0.101325 C1.28420345,4.29199167 4.28968621,7.00040833 8.51741034,7.00040833 C12.8682379,7.00040833 15.5589276,4.35790833 16.7741345,0.489241667 C16.0325828,0.637408333 15.2359276,0.735991667 14.3824103,0.779158333 C10.8704448,0.958825 5.46796207,1.07724167 1.81354828,0.498575" id="Fill-19" fill="#FFA836" mask="url(#mask-2)"></path>
                </g>
                <path d="M28.6929196,23.8429067 C34.5078789,23.7988479 38,19.7436555 38,15.1180806 C38,10.3972435 34.6790672,6.50340137 27.6766779,6.14974048 C25.0090433,6.01518263 21.2840335,5.91456194 18,6.1062771 C18.3399571,7.08628692 18.5831292,8.14786498 18.7301213,9.2701727 C19.3689018,14.1416431 19.7675347,18.8642663 19.7675347,22.6527247 C19.7675347,23.1254633 20.3609473,25.4826072 22.6777364,25.5004689 C23.8609322,25.5093997 24.946738,25.6868255 25.9278952,26 C26.2164353,25.1354956 26.9876902,23.8560053 28.6929196,23.8429067" id="Fill-22" fill="#FFA836"></path>
                <path d="M5.90233512,25.1402418 C6.22947459,12.6831384 8.14211853,7.75593636 14.7847032,6.6821205 C15.756083,6.52563477 16.8508783,6.41831314 18,6.34936349 C16.7274629,2.56073007 14.0489347,0 9.79375951,0 C4.67231432,0 1.32887807,4.02306223 0.777937406,9.88198385 C0.333287548,14.6143281 -0.123172401,19.1050489 0.0303587592,24.9501806 C0.326201494,36.236339 1.92469707,41.341611 7.16306214,43 C6.91682178,42.1282366 6.74321347,41.1947183 6.65050427,40.2078389 C6.2052639,35.4760942 5.74880396,30.985973 5.90233512,25.1402418" id="Fill-24" fill="#4CCCC2"></path>
                <path d="M24.627753,40.1589796 C24.4953026,41.1586977 24.2858463,42.1104965 24,43 C29.4150624,41.9433776 32,38.4278919 32,34.2762764 C32,30.5691131 29.7421839,27.2297312 25.8321269,26 C25.7267827,26.311476 25.6836593,26.5696417 25.6836593,26.694831 C25.6836593,30.5068179 25.2782997,35.2574257 24.627753,40.1589796" id="Fill-26" fill="#4CCCC2"></path>
                <path d="M19.9455027,22.4409805 C19.9455027,18.6766698 19.554353,13.9841486 18.9266113,9.14372892 C18.7815649,8.0285748 18.5425951,6.97376323 18.2091073,6 C17.052303,6.06803328 15.9501883,6.17333695 14.9723142,6.3283345 C8.28531954,7.38787882 6.35988834,12.2495958 6.03056173,24.5411381 C5.87600411,30.3085851 6.33551579,34.7396219 6.78313842,39.4084794 C6.87706189,40.3822426 7.05183089,41.3027624 7.29971752,42.1629397 C7.8466137,42.3333187 8.43274373,42.4664272 9.06107988,42.565815 C12.7668959,43.1526759 18.2453689,43.0325824 21.806733,42.8509632 C22.6722557,42.8065936 23.4801164,42.7066143 24.2320987,42.5563495 C24.5079246,41.6778328 24.7100384,40.7377905 24.8378456,39.7504206 C25.4655873,34.9100009 25.856737,30.2174797 25.856737,26.453169 C25.856737,26.3295259 25.8983486,26.0739574 26,25.7669203 C25.0357983,25.455742 23.9687563,25.2794471 22.805413,25.2705732 C20.5286604,25.2528254 19.9455027,22.9107059 19.9455027,22.4409805" id="Fill-28" fill="#FE615E"></path>
            </g>
            <path d="M70,10 C68.342983,10 67,11.342983 67,13 C67,14.657017 68.342983,16 70,16 C71.657017,16 73,14.657017 73,13 C73,11.342983 71.657017,10 70,10" id="Fill-1" fill="#A0A0A0"></path>
            <path d="M149,31.8779621 C146.341279,31.8779621 144.177887,29.6901659 144.177887,27 C144.177887,24.3104265 146.341279,22.1220379 149,22.1220379 C151.658122,22.1220379 153.821514,24.3104265 153.821514,27 C153.821514,29.6901659 151.658122,31.8779621 149,31.8779621 M149,17 C143.486104,17 139,21.485782 139,27 C139,32.514218 143.486104,37 149,37 C154.513896,37 159,32.514218 159,27 C159,21.485782 154.513896,17 149,17" id="Fill-3" fill="#A0A0A0"></path>
            <path d="M133.5,10 C132.119031,10 131,11.1569375 131,12.5833481 L131,34.4166519 C131,35.8436613 132.119031,37 133.5,37 C134.880969,37 136,35.8436613 136,34.4166519 L136,12.5833481 C136,11.1569375 134.880969,10 133.5,10" id="Fill-5" fill="#A0A0A0"></path>
            <path d="M70.6718044,18 L70.3281956,18 C69.0424151,18 68,19.0928478 68,20.4408351 L68,34.5585574 C68,35.9065447 69.0424151,37 70.3281956,37 L70.6718044,37 C71.9575849,37 73,35.9065447 73,34.5585574 L73,20.4408351 C73,19.0928478 71.9575849,18 70.6718044,18" id="Fill-7" fill="#A0A0A0"></path>
            <path d="M184.598184,17 L184.597587,17 C183.546314,17 182.618087,17.6779561 182.305692,18.6726864 L178.902793,29.5187992 L175.74957,19.0297235 C175.387001,17.8253893 174.270023,17 173.002522,17 C171.733826,17 170.615654,17.8277577 170.254876,19.0338682 L167.120768,29.5187992 L163.692184,18.6679496 C163.378594,17.6755877 162.450965,17 161.402081,17 C159.78097,17 158.626361,18.559595 159.111978,20.0925454 L163.756097,34.7405412 C164.181982,36.0852034 165.439926,37 166.862131,37 L166.863326,37 C168.304048,37 169.573938,36.0609272 169.983695,34.6919889 L173.00969,24.5913316 L176.057785,34.6979099 C176.469931,36.0638877 177.73803,37 179.17696,37 C180.601554,37 181.860693,36.0816508 182.284786,34.733436 L186.889482,20.0872165 C187.371515,18.5554503 186.216309,17 184.598184,17" id="Fill-9" fill="#A0A0A0"></path>
            <path d="M85.3164383,17.0016945 C80.1154227,17.0983133 76,21.3536881 76,26.4353608 L76,34.6183179 C76,35.9336371 77.0916611,37 78.4387915,37 L78.7986331,37 C80.1451567,37 81.2368177,35.9336371 81.2368177,34.6183179 L81.2368177,26.2794667 C81.2368177,23.9297932 83.2393089,22.0282411 85.6647504,22.1183396 C87.9712561,22.2036961 89.7631823,24.12718 89.7631823,26.382013 L89.7631823,34.6183179 C89.7631823,35.9336371 90.8548433,37 92.2013669,37 L92.5612085,37 C93.9077321,37 95,35.9336371 95,34.6183179 L95,26.2794667 C95,21.1029535 90.6382102,16.9032975 85.3164383,17.0016945" id="Fill-11" fill="#A0A0A0"></path>
            <path d="M62.6164676,31.8322207 L56.8990746,31.8322207 C55.9161196,31.8322207 55.1188405,31.0274125 55.1188405,30.0351749 L55.1188405,12.4060414 C55.1188405,11.0772694 54.0516491,10 52.7353081,10 L52.3835324,10 C51.0671913,10 50,11.0772694 50,12.4060414 L50,31.3004724 C50,34.4478476 52.5276833,37 55.6456142,37 L62.6164676,37 C63.9328087,37 65,35.9227306 65,34.5933598 L65,34.2388609 C65,32.9094901 63.9328087,31.8322207 62.6164676,31.8322207" id="Fill-13" fill="#A0A0A0"></path>
            <path d="M127.335969,10 L126.96999,10 L126.96999,10.0036202 C126.863478,10 126.756347,9.99939663 126.649836,10.0042236 C121.27533,10.2636715 117,14.5910218 117,19.8916036 L117,34.3229429 C117,35.7245651 118.105988,36.9306964 119.542657,36.9970668 C121.077169,37.0670574 122.343543,35.8754069 122.343543,34.3965537 L122.343543,25.326133 L125.485019,25.326133 C126.960701,25.326133 128.156481,24.1610307 128.156481,22.722603 C128.156481,21.2853821 126.960701,20.1196765 125.485019,20.1196765 L122.343543,20.1196765 L122.343543,19.8916036 C122.343543,17.300141 124.499786,15.1986127 127.160101,15.1986127 L127.224503,15.1913723 L127.335969,15.1913723 C128.807317,15.1913723 130,14.0292869 130,12.5956862 C130,11.1620854 128.807317,10 127.335969,10" id="Fill-15" fill="#A0A0A0"></path>
            <path d="M112.392689,17.8099124 C111.483783,16.7250028 109.884977,16.5968733 108.821064,17.5237166 L102.067093,23.4236612 L102.067093,12.5835458 C102.067093,11.1561592 100.932135,10 99.5335465,10 C98.1343712,10 97,11.1561592 97,12.5835458 L97,34.412263 C97,35.8396496 98.1343712,36.9958088 99.5335465,36.9958088 C100.932135,36.9958088 102.067093,35.8396496 102.067093,34.412263 L102.067093,30.2905644 L108.727707,36.3455816 C109.210344,36.784455 109.812171,37 110.412237,37 C111.109182,37 111.803779,36.7078168 112.304617,36.1354252 C113.235835,35.0708726 113.143065,33.4375208 112.099115,32.4879255 L105.919375,26.8711831 L112.112032,21.4520235 C113.175946,20.5251802 113.301595,18.894822 112.392689,17.8099124" id="Fill-17" fill="#A0A0A0"></path>
            <g id="Group"></g>
        </g>
    </g>
</svg>