<?xml version="1.0" encoding="UTF-8"?>
<svg width="187px" height="50px" viewBox="0 0 187 50" version="1.1" xmlns="http://www.w3.org/2000/svg" xmlns:xlink="http://www.w3.org/1999/xlink">
    <!-- Generator: Sketch 49 (51002) - http://www.bohemiancoding.com/sketch -->
    <title>Page 1</title>
    <desc>Created with Sketch.</desc>
    <defs>
        <polygon id="path-1" points="0 0.281428571 37.8276217 0.281428571 37.8276217 49.5535714 0 49.5535714"></polygon>
    </defs>
    <g id="Page-1" stroke="none" stroke-width="1" fill="none" fill-rule="evenodd">
        <g id="场景" transform="translate(-60.000000, -20.000000)">
            <g id="Page-1" transform="translate(60.000000, 20.000000)">
                <path d="M70.1651487,10.5858482 C68.5979535,10.5858482 67.3272547,11.8447768 67.3272547,13.3974554 C67.3272547,14.9501339 68.5979535,16.2090625 70.1651487,16.2090625 C71.7323439,16.2090625 73.002592,14.9501339 73.002592,13.3974554 C73.002592,11.8447768 71.7323439,10.5858482 70.1651487,10.5858482" id="Fill-1" fill="#FEFEFE"></path>
                <path d="M148.51166,32.1186161 C145.868877,32.1186161 143.719503,29.9400446 143.719503,27.2623661 C143.719503,24.5842411 145.868877,22.4056696 148.51166,22.4056696 C151.153993,22.4056696 153.303817,24.5842411 153.303817,27.2623661 C153.303817,29.9400446 151.153993,32.1186161 148.51166,32.1186161 M148.51166,17.3065625 C143.031433,17.3065625 138.572723,21.7726339 138.572723,27.2623661 C138.572723,32.7516518 143.031433,37.2177232 148.51166,37.2177232 C153.991887,37.2177232 158.450597,32.7516518 158.450597,27.2623661 C158.450597,21.7726339 153.991887,17.3065625 148.51166,17.3065625" id="Fill-3" fill="#FEFEFE"></path>
                <path d="M133.942513,10.6257589 C132.523566,10.6257589 131.374079,11.7650446 131.374079,13.1704018 L131.374079,34.6730804 C131.374079,36.0784375 132.523566,37.2177232 133.942513,37.2177232 C135.360558,37.2177232 136.510946,36.0784375 136.510946,34.6730804 L136.510946,13.1704018 C136.510946,11.7650446 135.360558,10.6257589 133.942513,10.6257589" id="Fill-5" fill="#FEFEFE"></path>
                <path d="M70.3010954,18.7316518 L69.9482737,18.7316518 C68.6271075,18.7316518 67.5560255,19.7923661 67.5560255,21.1012946 L67.5560255,34.8079911 C67.5560255,36.1169196 68.6271075,37.1776339 69.9482737,37.1776339 L70.3010954,37.1776339 C71.6222617,37.1776339 72.6933436,36.1169196 72.6933436,34.8079911 L72.6933436,21.1012946 C72.6933436,19.7923661 71.6222617,18.7316518 70.3010954,18.7316518" id="Fill-7" fill="#FEFEFE"></path>
                <path d="M184.158727,17.29625 L184.158276,17.29625 C183.110625,17.29625 182.185539,17.97125 181.874172,18.9623214 L178.482488,29.7654464 L175.339987,19.3176786 C174.979054,18.1185714 173.866066,17.29625 172.602577,17.29625 C171.337286,17.29625 170.223396,18.1208036 169.863816,19.3221429 L166.74069,29.7654464 L163.323772,18.9578571 C163.011054,17.9690179 162.086869,17.29625 161.04102,17.29625 C159.425611,17.29625 158.274772,18.8498214 158.75917,20.3766071 L163.387307,34.9672321 C163.812225,36.3065179 165.065351,37.2176786 166.482045,37.2176786 L166.483847,37.2176786 C167.919917,37.2176786 169.185208,36.2824107 169.593905,34.9185714 L172.608886,24.8578571 L175.647298,34.9239286 C176.057796,36.2850893 177.321736,37.2176786 178.755553,37.2176786 C180.175852,37.2176786 181.430329,36.3029464 181.852994,34.9596429 L186.441929,20.37125 C186.922271,18.8458036 185.771433,17.29625 184.158727,17.29625" id="Fill-9" fill="#FEFEFE"></path>
                <path d="M84.9692402,17.21625 C79.8670692,17.3117857 75.8301222,21.5466071 75.8301222,26.6019643 L75.8301222,34.744375 C75.8301222,36.0528571 76.9007535,37.1140179 78.2219198,37.1140179 L78.575192,37.1140179 C79.8959077,37.1140179 80.9669896,36.0528571 80.9669896,34.744375 L80.9669896,26.4475 C80.9669896,24.1095536 82.9311655,22.2175893 85.3107969,22.306875 C87.5741728,22.3916964 89.3315222,24.3055357 89.3315222,26.5492857 L89.3315222,34.744375 C89.3315222,36.0528571 90.4026041,37.1140179 91.7233198,37.1140179 L92.076592,37.1140179 C93.3977583,37.1140179 94.4683896,36.0528571 94.4683896,34.744375 L94.4683896,26.4475 C94.4683896,21.2970536 90.1899198,17.1184821 84.9692402,17.21625" id="Fill-11" fill="#FEFEFE"></path>
                <path d="M62.4888212,32.0885268 L56.7522019,32.0885268 C55.7653827,32.0885268 54.9655634,31.2961161 54.9655634,30.3184375 L54.9655634,12.9559375 C54.9655634,11.6465625 53.8944814,10.5858482 52.5733152,10.5858482 L52.2204935,10.5858482 C50.8993272,10.5858482 49.8282453,11.6465625 49.8282453,12.9559375 L49.8282453,31.5648661 C49.8282453,34.6648661 52.3651369,37.1778125 55.49412,37.1778125 L62.4888212,37.1778125 C63.8099875,37.1778125 64.8806188,36.1166518 64.8806188,34.8081696 L64.8806188,34.4586161 C64.8806188,33.1492411 63.8099875,32.0885268 62.4888212,32.0885268" id="Fill-13" fill="#FEFEFE"></path>
                <path d="M126.492387,10.8260714 L126.140918,10.8260714 L126.141368,10.8296429 C126.038631,10.8260714 125.935443,10.825625 125.832706,10.8305357 C120.666549,11.0836607 116.556604,15.3140179 116.556604,20.4948214 L116.556604,34.6010714 C116.556604,35.9711607 117.619575,37.1501786 119.001122,37.2149107 C120.475493,37.2836607 121.693472,36.119375 121.693472,34.6729464 L121.693472,25.8073214 L124.712959,25.8073214 C126.131455,25.8073214 127.281392,24.6680357 127.281392,23.2626786 C127.281392,21.8573214 126.131455,20.7180357 124.712959,20.7180357 L121.693472,20.7180357 L121.693472,20.4948214 C121.693472,17.9617857 123.766243,15.9077679 126.323412,15.9077679 L126.385595,15.900625 L126.492387,15.900625 C127.906828,15.900625 129.053612,14.7649107 129.053612,13.3635714 C129.053612,11.9622321 127.906828,10.8260714 126.492387,10.8260714" id="Fill-15" fill="#FEFEFE"></path>
                <path d="M113.003379,18.2791071 C112.082348,17.2103571 110.46108,17.0844643 109.382338,17.9974107 L102.534984,23.8085714 L102.534984,13.1304464 C102.534984,11.7250893 101.385047,10.5858036 99.9665501,10.5858036 C98.5480537,10.5858036 97.3981164,11.7250893 97.3981164,13.1304464 L97.3981164,34.633125 C97.3981164,36.0384821 98.5480537,37.1777679 99.9665501,37.1777679 C101.385047,37.1777679 102.534984,36.0384821 102.534984,34.633125 L102.534984,30.5733036 L109.287712,36.5366964 C109.777516,36.9692857 110.387632,37.1817857 110.995945,37.1817857 C111.70294,37.1817857 112.407232,36.8942857 112.91461,36.3304464 C113.858172,35.2813393 113.764897,33.6728571 112.705981,32.7375893 L106.440806,27.205 L112.7195,21.8666071 C113.797791,20.9536607 113.924861,19.3474107 113.003379,18.2791071" id="Fill-17" fill="#FEFEFE"></path>
                <g id="Group-21" transform="translate(0.000000, 0.165179)">
                    <mask id="mask-2" fill="white">
                        <use xlink:href="#path-1"></use>
                    </mask>
                    <g id="Clip-20"></g>
                    <path d="M24.9750892,24.0640179 C24.6173108,24.5033036 24.3392892,25.1211607 24.1549928,25.8408036 L24.1554434,25.8408036 C23.702588,25.7814286 23.2362145,25.7421429 22.7491133,25.738125 C20.4686145,25.7207143 19.8846337,23.3854464 19.8846337,22.9175893 C19.8846337,19.1644643 19.4930602,14.4867857 18.8644699,9.66089286 C18.8067928,9.21848214 18.7297398,8.78857143 18.6423229,8.36625 C18.6423229,8.36669643 18.6423229,8.36669643 18.6423229,8.36714286 C19.2740675,8.33008929 19.8702145,8.31133929 20.5645928,8.31133929 C21.0647614,8.30151786 21.582053,8.29660714 22.1155663,8.29660714 C24.2505205,8.29660714 26.2611084,8.37607143 27.5719108,8.44303571 C32.8872169,8.71267857 35.9350916,11.2680357 35.9350916,15.4533036 C35.9350916,18.6863393 33.6568458,22.1832143 28.6542578,22.2216071 C27.1623133,22.2327679 25.8537639,22.91 24.9750892,24.0640179 M27.6530193,29.2434821 C29.1494699,30.4649107 30.0150771,32.2854464 30.0150771,34.3809821 C30.0150771,36.9577679 28.8588313,38.9260714 26.6995446,40.1175893 C26.2994096,40.3711607 25.4941831,40.6863393 24.6691301,40.9291964 C24.712388,40.6809821 24.7506892,40.42875 24.7844843,40.1733929 C25.3459349,35.8635714 25.7158795,31.6765179 25.7888771,28.1559821 C26.6454723,28.5010714 27.341653,28.9595536 27.6530193,29.2434821 M22.9072747,39.9336607 C22.8455422,40.406875 22.7648843,40.8666964 22.6662024,41.3091071 C22.3363614,41.3466071 21.9975084,41.3742857 21.6518964,41.3916964 C20.3383904,41.4586607 18.3246482,41.5385714 16.189694,41.5385714 C13.3301711,41.5385714 11.0064145,41.400625 9.28240964,41.1283036 C9.11523614,41.1024107 8.95166747,41.0733929 8.79170361,41.04125 C8.70203373,40.5916964 8.63399277,40.1278571 8.58848193,39.6546429 L8.52855181,39.0363393 C8.10138072,34.61625 7.69764096,30.44125 7.84228434,25.0608929 C8.1910506,12.0854464 10.4936289,9.44883929 15.2024241,8.70598214 C15.6678964,8.63276786 16.1833855,8.56892857 16.7434843,8.51446429 C16.8439687,8.96044643 16.9250771,9.42383929 16.9872602,9.90107143 C17.6446892,14.9466071 17.9921036,19.4479464 17.9921036,22.9175893 C17.9921036,24.4916964 19.4241181,27.588125 22.7342434,27.6135714 C23.1343783,27.61625 23.5259518,27.6430357 23.9062602,27.6930357 C23.8598482,31.0466071 23.5169398,35.2559821 22.9072747,39.9336607 M21.0178988,45.1765179 C19.7864024,46.8394643 18.0380651,47.67875 15.7931639,47.67875 C14.3679084,47.67875 12.1072361,47.2742857 10.4611855,45.0528571 C10.0452795,44.5751786 9.65640964,43.8671429 9.34098795,43.0300893 C9.22293012,43.0135714 9.10036627,42.9983929 8.98501205,42.9800893 C11.0496723,43.3059821 13.6631663,43.4135714 16.189694,43.4135714 C18.2056892,43.4135714 20.1658096,43.3448214 21.7487759,43.2644643 C21.8690867,43.2582143 21.9794843,43.2430357 22.0975422,43.2345536 C21.773559,44.0439286 21.3801831,44.7550893 21.0178988,45.1765179 M6.70451325,39.8327679 C6.72388916,40.0341071 6.74912289,40.2314286 6.77525783,40.4283036 C5.82358554,39.969375 5.08369639,39.3416964 4.69888193,38.7501786 C3.07040482,36.6604464 2.13585542,32.7050893 1.92226988,24.7738393 C1.77762651,19.3961607 2.18136627,15.2233929 2.60808675,10.8055357 L2.66891807,10.1800893 C3.15286506,5.15598214 5.84611566,2.15598214 9.8731494,2.15598214 C12.223041,2.15598214 14.0299566,3.07964286 15.2704651,4.90732143 C15.6178795,5.34660714 15.9499735,5.93678571 16.2343036,6.68321429 C16.2356554,6.68321429 16.2370072,6.68321429 16.2379084,6.68276786 C15.7755904,6.73232143 15.3267904,6.788125 14.9050265,6.85464286 C8.20817349,7.91089286 6.27959518,12.756875 5.95020482,25.0108929 C5.79564819,30.7608929 6.25571325,35.1778571 6.70451325,39.8327679 M28.6686771,24.0961607 C34.3913277,24.0524107 37.8276217,20.0358929 37.8276217,15.4533036 C37.8276217,10.7774107 34.559853,6.92026786 27.6687904,6.57026786 C26.0871759,6.48991071 24.1293084,6.42160714 22.1155663,6.42160714 C20.785388,6.42160714 19.4313277,6.45151786 18.145759,6.52696429 C16.862894,2.80017857 14.1633349,0.281428571 9.8731494,0.281428571 C4.71014699,0.281428571 1.34009157,4.23857143 0.784498795,10.0019643 C0.336149398,14.656875 -0.124366265,19.0738393 0.0306409639,24.8238393 C0.329390361,35.9265179 1.94029398,40.9479464 7.22180482,42.5791964 C8.44789398,46.8153571 11.4993735,49.55375 15.7931639,49.55375 C20.2108699,49.55375 22.9428723,46.8823214 24.1775229,42.9711607 C29.4103687,41.9309821 31.9076072,38.469375 31.9076072,34.3809821 C31.9076072,30.731875 29.726241,27.4430357 25.9479398,26.2323214 C26.2318193,25.3769643 26.9906337,24.1091071 28.6686771,24.0961607" id="Fill-19" fill="#FEFEFE" mask="url(#mask-2)"></path>
                </g>
            </g>
        </g>
    </g>
</svg>